<svg width="36" height="36" viewBox="0 0 36 36" fill="none" xmlns="http://www.w3.org/2000/svg">
<path d="M35.9229 0.672135L35.9176 0.661395C35.905 0.630963 35.8907 0.600829 35.8767 0.572185C35.8624 0.542052 35.8448 0.513411 35.8269 0.484771C35.8233 0.479401 35.8197 0.475821 35.8161 0.470451C35.8018 0.448969 35.7857 0.425996 35.7681 0.406305C35.7627 0.399145 35.7573 0.393775 35.752 0.386614C35.7305 0.361553 35.7093 0.33679 35.686 0.313518C35.661 0.288457 35.6362 0.267274 35.6111 0.245793C35.6058 0.242213 35.6022 0.238633 35.5968 0.235052C35.5735 0.215361 35.5488 0.197758 35.5237 0.181647C35.5219 0.179857 35.5183 0.178067 35.5166 0.176277C35.2277 -0.0143697 34.859 -0.0555447 34.5328 0.0781162L1.78468 13.2487C0.708172 13.6819 0.0258637 14.6692 0.000810879 15.8294C-0.0260415 16.9879 0.615736 18.0053 1.67072 18.4848L12.571 23.4285L17.5149 34.3283C17.9854 35.3639 18.9727 36 20.1043 36C20.1276 36 20.1488 36 20.1703 35.9982C21.3288 35.9731 22.3179 35.2908 22.749 34.2144L35.9232 1.46747C35.9357 1.43704 35.9464 1.4069 35.9554 1.37469C35.9554 1.3729 35.9572 1.37111 35.9572 1.36932C35.9661 1.33709 35.9751 1.30517 35.9804 1.27295C36.0195 1.07008 35.9998 0.861526 35.9232 0.672667L35.9229 0.672135ZM2.55454 16.535C2.16965 16.3605 2.13564 16.0165 2.13922 15.8757C2.1428 15.7348 2.19084 15.3908 2.58289 15.2342L30.4763 4.01357L13.1463 21.3429L2.55454 16.535ZM20.7652 33.4175C20.6083 33.8096 20.2643 33.8576 20.1237 33.8612C19.9563 33.8415 19.6371 33.8275 19.4643 33.4459L14.656 22.8546L31.986 5.52526L20.7652 33.4175Z" fill="black"/>
</svg>
