<svg width="15" height="17" viewBox="0 0 15 17" fill="none" xmlns="http://www.w3.org/2000/svg">
<path d="M6.30159 0C5.19213 0 4.28439 0.907738 4.28439 2.0172H2.2672C1.15774 2.0172 0.25 2.92493 0.25 4.03439H14.3704C14.3704 2.92493 13.4626 2.0172 12.3532 2.0172H10.336C10.336 0.907738 9.42824 0 8.31878 0H6.30159ZM2.2672 6.05159V15.7543C2.2672 15.9762 2.42857 16.1376 2.65046 16.1376H11.9901C12.212 16.1376 12.3733 15.9762 12.3733 15.7543V6.05159H10.3561V13.1118C10.3561 13.6766 9.91237 14.1204 9.34755 14.1204C8.78274 14.1204 8.33895 13.6766 8.33895 13.1118V6.05159H6.32176V13.1118C6.32176 13.6766 5.87798 14.1204 5.31316 14.1204C4.74835 14.1204 4.30456 13.6766 4.30456 13.1118V6.05159H2.28737H2.2672Z" fill="white"/>
</svg>
