<svg width="19" height="17" viewBox="0 0 19 17" fill="none" xmlns="http://www.w3.org/2000/svg">
<path d="M10.7067 0.824219C6.27234 0.824219 2.67668 4.41987 2.67668 8.85422H0L3.47076 12.325L3.53321 12.4499L7.1378 8.85422H4.46113C4.46113 5.40132 7.25379 2.60866 10.7067 2.60866C14.1596 2.60866 16.9523 5.40132 16.9523 8.85422C16.9523 12.3071 14.1596 15.0998 10.7067 15.0998C8.98471 15.0998 7.42331 14.3949 6.29911 13.2618L5.03215 14.5288C6.48648 15.9831 8.48506 16.8842 10.7067 16.8842C15.1411 16.8842 18.7367 13.2886 18.7367 8.85422C18.7367 4.41987 15.1411 0.824219 10.7067 0.824219ZM9.81448 5.28533V9.74644L13.6332 12.0127L14.2756 10.9331L11.1528 9.07727V5.28533H9.81448Z" fill="black"/>
</svg>
