<svg width="18" height="20" viewBox="0 0 18 20" fill="none" xmlns="http://www.w3.org/2000/svg">
<path d="M14.218 13.6142C13.4977 13.6142 12.8531 13.8925 12.3602 14.3286L5.60191 10.4779C5.6493 10.2645 5.68722 10.0511 5.68722 9.82841C5.68722 9.60571 5.6493 9.3923 5.60191 9.17889L12.2844 5.36528C12.7962 5.82922 13.4692 6.11687 14.218 6.11687C15.7915 6.11687 17.0617 4.8735 17.0617 3.33321C17.0617 1.79293 15.7915 0.549561 14.218 0.549561C12.6446 0.549561 11.3744 1.79293 11.3744 3.33321C11.3744 3.55591 11.4124 3.76932 11.4597 3.98273L4.77726 7.79634C4.26541 7.3324 3.59243 7.04475 2.84361 7.04475C1.27015 7.04475 0 8.28812 0 9.82841C0 11.3687 1.27015 12.6121 2.84361 12.6121C3.59243 12.6121 4.26541 12.3244 4.77726 11.8605L11.5261 15.7205C11.4787 15.9153 11.4503 16.1195 11.4503 16.3236C11.4503 17.8175 12.692 19.033 14.218 19.033C15.7441 19.033 16.9858 17.8175 16.9858 16.3236C16.9858 14.8297 15.7441 13.6142 14.218 13.6142Z" fill="black"/>
</svg>
