<svg width="14" height="17" viewBox="0 0 14 17" fill="none" xmlns="http://www.w3.org/2000/svg">
<path d="M4.89845 10.0179C3.73686 11.2119 2.43631 12.2297 1.03109 13.0442C0.810769 13.1747 0.543939 13.1655 0.331356 13.02C0.118892 12.8746 -0.00731994 12.615 0.000540191 12.3391C0.00839192 12.063 0.149018 11.8127 0.369456 11.6822C1.54661 10.996 2.64634 10.1588 3.64551 9.18775L2.44033 8.38959C2.22611 8.24729 2.09685 7.98988 2.10117 7.71396C2.10551 7.43816 2.24274 7.18579 2.4613 7.05177C2.67986 6.91788 2.94647 6.92267 3.16091 7.06458L4.67336 8.06633V8.0662C5.67498 6.84519 6.44701 5.41667 6.9446 3.86347H0.700001C0.44992 3.86347 0.218824 3.71613 0.0937815 3.47707C-0.0312605 3.23801 -0.0312605 2.94347 0.0937815 2.70441C0.218824 2.46535 0.449917 2.31801 0.700001 2.31801H4.20016V0.772693C4.20016 0.496642 4.33352 0.241547 4.55008 0.10352C4.76665 -0.0345068 5.0336 -0.0345068 5.25018 0.10352C5.46674 0.241547 5.6001 0.496639 5.6001 0.772693V2.31801H9.31026C9.56034 2.31801 9.79144 2.46535 9.91648 2.70441C10.0415 2.94347 10.0415 3.23801 9.91648 3.47707C9.79144 3.71613 9.56034 3.86347 9.31026 3.86347H8.41553C7.89508 5.70723 7.03514 7.41216 5.88964 8.87191L6.66038 9.38249H6.66049C6.82105 9.48715 6.93718 9.65829 6.98312 9.85787C7.02894 10.0575 7.0007 10.269 6.90472 10.4455C6.80874 10.6221 6.65288 10.749 6.47181 10.7982C6.29064 10.8473 6.09927 10.8147 5.93999 10.7075L4.89845 10.0179ZM13.613 16.9183C13.4469 17.01 13.2548 17.0252 13.0786 16.9603C12.9025 16.8955 12.7569 16.7561 12.6739 16.5728L11.6015 14.2053C10.4683 14.8355 9.1317 14.8355 7.9987 14.2053L6.9263 16.5728C6.81439 16.8197 6.59174 16.9821 6.3421 16.9986C6.09237 17.0151 5.85367 16.8834 5.71584 16.653C5.57802 16.4226 5.56209 16.1285 5.67401 15.8816L8.54784 9.53692L8.54773 9.53679C8.70359 9.19282 8.97007 8.9253 9.29504 8.78665C9.62012 8.64785 9.98025 8.64798 10.3052 8.78678C10.6302 8.92558 10.8966 9.19321 11.0523 9.53718L13.926 15.8812H13.9261C14.0091 16.0645 14.0228 16.2768 13.9641 16.4712C13.9054 16.6655 13.779 16.8263 13.613 16.9179L13.613 16.9183ZM10.9754 12.8229L9.80011 10.2278L8.62469 12.8229C9.36426 13.2327 10.2358 13.2327 10.9755 12.8229H10.9754Z" fill="white"/>
</svg>
